<?xml version="1.0" encoding="UTF-8"?>
<svg width="300px" height="57px" viewBox="0 0 300 57" version="1.1" xmlns="http://www.w3.org/2000/svg" xmlns:xlink="http://www.w3.org/1999/xlink">
    <title>hildgard631-light</title>
    <g id="Page-1" stroke="none" stroke-width="1" fill="none" fill-rule="evenodd">
        <g id="v1" transform="translate(-97, -466)" fill="#FFFFFF">
            <g id="hildgard631-light" transform="translate(97, 466)">
                <polygon id="Fill-1" points="15.0603139 17.1575661 15.0603139 20.8228315 17.6596658 20.8228315 17.7743431 20.9755774 17.7743431 27.1617867 7.72096721 27.1617867 7.72096721 20.9755774 7.79805584 20.8228315 10.3585449 20.8228315 10.3585449 17.1575661 0 17.1575661 0 20.8228315 2.52290042 20.8228315 2.59871485 20.9755774 2.59871485 37.2048303 2.52290042 37.3569397 0 37.3569397 0 41.023478 10.3203192 41.023478 10.3203192 37.3569397 7.79805584 37.3569397 7.72096721 37.2048303 7.72096721 30.7131291 17.7743431 30.7131291 17.7743431 37.2048303 17.6596658 37.3569397 15.1367654 37.3569397 15.1367654 41.023478 25.5335361 41.023478 25.5335361 37.3569397 22.9724099 37.3569397 22.8959584 37.2048303 22.8959584 20.9755774 22.9724099 20.8228315 25.5335361 20.8228315 25.5335361 17.1575661"></polygon>
                <polygon id="Fill-2" points="35.6257749 41.0232871 35.6257749 37.3573852 38.3015783 37.3573852 38.4162556 37.2046393 38.4162556 20.9760229 38.3015783 20.823277 35.6257749 20.823277 35.6257749 17.1573752 46.2901259 17.1573752 46.2901259 20.823277 43.6149595 20.823277 43.5378709 20.9760229 43.5378709 37.2046393 43.6149595 37.3573852 46.2901259 37.3573852 46.2901259 41.0232871"></polygon>
                <polygon id="Fill-3" points="56.3821098 41.0232871 56.3821098 37.3573852 58.9050103 37.3573852 58.9814618 37.2046393 58.9814618 20.9760229 58.9050103 20.823277 56.3821098 20.823277 56.3821098 17.1573752 67.5816216 17.1573752 67.5816216 20.823277 64.1801657 20.823277 64.1037141 20.9760229 64.1037141 37.2046393 64.1801657 37.3573852 71.0219403 37.3573852 72.7420997 32.5458891 76.5264503 32.5458891 75.6854835 41.0232871"></polygon>
                <path d="M108.405909,39.6863785 C106.074138,40.6792269 101.716401,41.5575159 97.8944612,41.5575159 C88.9496325,41.5575159 85.6246281,37.6624952 85.6246281,29.6439714 C85.6246281,20.8228951 89.5994704,16.6230191 97.7033324,16.6230191 C100.034467,16.6230191 101.793489,16.9666974 103.16898,17.4242987 C103.780592,17.2340027 106.227041,16.5466461 106.800427,16.3557137 L106.800427,25.0615941 L103.16898,25.0615941 L102.213335,21.3956923 C101.105425,20.7853451 99.6146206,20.4792168 97.5122036,20.4792168 C93.3455953,20.4792168 91.0520495,22.9231514 91.0520495,28.9941648 C91.0520495,35.6010619 93.1162407,37.7388681 98.1620416,37.7388681 C99.3088145,37.7388681 100.188007,37.6249451 101.257691,37.3576398 L101.257691,32.5079572 L98.1238158,32.5079572 L98.1238158,28.8420554 L108.67349,28.8420554 L108.67349,32.5079572 L106.074138,32.5079572 L106.074138,36.4029779 L108.405909,36.4029779 L108.405909,39.6863785 Z" id="Fill-4"></path>
                <path d="M130.194722,21.2053327 L129.736013,21.2053327 L126.869081,30.4076373 L132.985203,30.4076373 L130.194722,21.2053327 Z M132.564719,41.023478 L132.564719,37.3575762 L134.934717,37.3575762 L135.049394,37.2048303 L134.055524,33.9207932 L125.799396,33.9207932 L124.805526,37.2048303 L124.919567,37.3575762 L127.32779,37.3575762 L127.32779,41.023478 L117.886663,41.023478 L117.886663,37.3575762 L120.256661,37.3575762 L126.181017,19.10444 L126.181017,17.6539903 L133.711492,16.4702095 L140.439227,37.3575762 L142.808587,37.3575762 L142.808587,41.023478 L132.564719,41.023478 Z" id="Fill-6"></path>
                <path d="M162.915594,28.2310717 C165.973655,28.2310717 167.349145,26.8563586 167.349145,24.1451187 C167.349145,21.8927529 165.782526,20.8228951 162.724465,20.8228951 L159.551726,20.8228951 L159.551726,28.2310717 L162.915594,28.2310717 Z M167.808491,41.0235416 L162.648013,31.8206006 L159.551726,31.8206006 L159.551726,37.2048939 L159.666404,37.3576398 L162.074627,37.3576398 L162.074627,41.0235416 L151.868985,41.0235416 L151.868985,37.3576398 L154.391885,37.3576398 L154.4677,37.2048939 L154.4677,20.9762775 L154.391885,20.8228951 L151.868985,20.8228951 L151.868985,17.1576298 L163.412529,17.1576298 C170.25494,17.1576298 172.777204,19.4488184 172.777204,23.9541863 C172.777204,27.7346475 170.980593,30.1403956 167.922532,31.0950575 L171.515753,37.3576398 L174.115105,37.3576398 L174.115105,41.0235416 L167.808491,41.0235416 Z" id="Fill-8"></path>
                <path d="M194.451212,37.3575125 C198.961852,37.3575125 201.522978,34.7220091 201.522978,28.9940376 C201.522978,22.8091011 199.152981,20.8234043 194.10718,20.8234043 L191.507828,20.8234043 L191.507828,37.3575125 L194.451212,37.3575125 Z M183.786861,41.0234143 L183.786861,37.3575125 L186.309761,37.3575125 L186.386213,37.2047666 L186.386213,20.9761502 L186.309761,20.8234043 L183.786861,20.8234043 L183.786861,17.1575025 L195.10105,17.1575025 C203.319589,17.1575025 206.9504,20.8234043 206.9504,28.6509957 C206.9504,36.8986384 203.090234,41.0234143 194.757018,41.0234143 L183.786861,41.0234143 Z" id="Fill-10"></path>
                <path d="M232.303701,21.1158491 C229.159632,21.1158491 226.350676,22.7196811 224.745193,24.3235132 C224.410718,24.6570084 224.143138,26.5949721 224.143138,28.2656305 C224.143138,35.0819167 227.621045,42.0312191 233.64224,42.0312191 C238.658734,42.0312191 241.200748,37.1535331 241.200748,32.1415579 C241.200748,25.7936925 237.387728,21.1158491 232.303701,21.1158491 M232.103653,44.8379252 C222.805236,44.8379252 218.12258,36.5520961 218.12258,28.2656305 C218.12258,12.7631936 232.237443,0.934932252 247.086878,0 L247.288201,2.13844273 C234.444344,3.875291 227.554787,12.1617566 225.012774,21.3831544 L225.079669,21.4499807 C227.688577,19.1116954 231.300912,17.5746897 234.711924,17.5746897 C242.337964,17.5746897 246.819298,23.3211181 246.819298,30.271057 C246.819298,39.1589596 240.398007,44.8379252 232.103653,44.8379252" id="Fill-12"></path>
                <path d="M264.479537,31.2063075 C270.900828,31.3399601 275.851702,35.1484248 275.851702,41.4969267 C275.851702,49.5829132 267.690501,57 258.659665,57 C253.843855,57 250.432206,54.7279046 250.432206,52.122314 C250.432206,50.2511766 251.903898,48.8478235 253.710065,48.8478235 C256.252079,48.8478235 258.459616,51.3872243 258.927245,53.9259886 C259.529301,54.0602777 260.064461,54.0602777 260.667154,54.0602777 C265.081593,54.0602777 269.898039,50.4516556 269.898039,44.5041117 C269.898039,38.8245097 266.285704,35.2158876 261.134783,35.2158876 C259.396148,35.2158876 257.58998,35.5500193 255.783813,36.3519353 L255.04733,34.5476242 C259.796881,31.4067865 266.820865,27.9986434 266.820865,22.7868257 C266.820865,19.1113772 264.145062,16.1041921 260.064461,16.1041921 C256.719707,16.1041921 254.044541,18.4431139 252.639744,20.3810776 C252.305268,20.3810776 250.967367,19.6459879 251.301205,19.6459879 C253.174905,14.3667074 257.990714,11.2933324 263.743691,11.2933324 C269.429774,11.2933324 273.309051,15.0349708 273.309051,19.7796406 C273.309051,23.9228734 270.900828,27.3972064 264.479537,31.0726548 L264.479537,31.2063075 Z" id="Fill-14"></path>
                <path d="M282.273439,43.5690522 L282.474124,41.229494 L286.75541,40.4950408 C287.825731,40.1609091 288.29336,39.6931248 288.29336,38.9580351 L288.29336,16.3045439 L280.935537,15.7037433 L281.136223,13.6983168 L293.711862,11.5605105 L293.711862,38.9580351 C293.711862,39.6931248 294.113232,40.2939253 295.250449,40.4950408 L299.799315,41.229494 L300,43.5690522 L282.273439,43.5690522 Z" id="Fill-16"></path>
            </g>
        </g>
    </g>
</svg>