<?xml version="1.0" encoding="UTF-8"?>
<svg width="253px" height="50px" viewBox="0 0 253 50" version="1.1" xmlns="http://www.w3.org/2000/svg" xmlns:xlink="http://www.w3.org/1999/xlink">
    <title>hilgard631-light</title>
    <g id="Page-1" stroke="none" stroke-width="1" fill="none" fill-rule="evenodd">
        <g id="v1-copy" transform="translate(-97, -477)" fill="#FFFFFF">
            <g id="Group" transform="translate(50, 50)">
                <g id="hilgard631-light" transform="translate(47, 427)">
                    <polygon id="Fill-1" points="13.3233212 15.0504966 13.3233212 18.2656417 15.6228749 18.2656417 15.7243258 18.3996293 15.7243258 23.8261287 6.83102722 23.8261287 6.83102722 18.3996293 6.89866116 18.2656417 9.16383429 18.2656417 9.16383429 15.0504966 0 15.0504966 0 18.2656417 2.23191979 18.2656417 2.2989901 18.3996293 2.2989901 32.635816 2.23191979 32.7692454 0 32.7692454 0 35.9849487 9.13001733 35.9849487 9.13001733 32.7692454 6.89866116 32.7692454 6.83102722 32.635816 6.83102722 26.9413413 15.7243258 26.9413413 15.7243258 32.635816 15.6228749 32.7692454 13.3915187 32.7692454 13.3915187 35.9849487 22.5886064 35.9849487 22.5886064 32.7692454 20.3228696 32.7692454 20.2552357 32.635816 20.2552357 18.3996293 20.3228696 18.2656417 22.5886064 18.2656417 22.5886064 15.0504966"></polygon>
                    <polygon id="Fill-2" points="29.4883384 35.9847812 29.4883384 32.7690779 31.8549624 32.7690779 31.9569769 32.6356485 31.9569769 18.4000201 31.8549624 18.2660325 29.4883384 18.2660325 29.4883384 15.0503291 38.9227084 15.0503291 38.9227084 18.2660325 36.5555208 18.2660325 36.4878868 18.4000201 36.4878868 32.6356485 36.5555208 32.7690779 38.9227084 32.7690779 38.9227084 35.9847812"></polygon>
                    <polygon id="Fill-3" points="47.1739919 35.9847812 47.1739919 32.7690779 49.4059116 32.7690779 49.4735456 32.6356485 49.4735456 18.4000201 49.4059116 18.2660325 47.1739919 18.2660325 47.1739919 15.0503291 57.0817994 15.0503291 57.0817994 18.2660325 54.0720894 18.2660325 54.0044555 18.4000201 54.0044555 32.6356485 54.0720894 32.7690779 60.1253264 32.7690779 61.6470899 28.5495838 64.9944059 28.5495838 64.2509963 35.9847812"></polygon>
                    <path d="M90.4926241,34.8126127 C88.4297891,35.6840906 84.574655,36.453403 81.1935219,36.453403 C73.2803518,36.453403 70.3382757,33.0372765 70.3382757,26.0034837 C70.3382757,18.2656975 73.8552402,14.5815957 81.0238735,14.5815957 C83.0867084,14.5815957 84.6422889,14.8830679 85.8596997,15.2844725 C86.4007712,15.1175462 88.565057,14.5146019 89.0717479,14.3471173 L89.0717479,21.9838545 L85.8596997,21.9838545 L85.0142755,18.7681511 C84.0335835,18.2322006 82.7147218,17.9642253 80.8547887,17.9642253 C77.1687393,17.9642253 75.1402849,20.1080275 75.1402849,25.4340362 C75.1402849,31.2284433 76.9664011,33.1042703 81.4302407,33.1042703 C82.4447497,33.1042703 83.2225399,33.0037796 84.1688514,32.7693012 L84.1688514,28.5157519 L81.3958601,28.5157519 L81.3958601,25.3000486 L90.7293429,25.3000486 L90.7293429,28.5157519 L88.4297891,28.5157519 L88.4297891,31.9318785 L90.4926241,31.9318785 L90.4926241,34.8126127 Z" id="Fill-4"></path>
                    <path d="M108.415504,18.6008899 L108.0097,18.6008899 L105.473428,26.6730869 L110.884142,26.6730869 L108.415504,18.6008899 Z M110.512156,35.9846696 L110.512156,32.7689662 L112.608244,32.7689662 L112.709695,32.6355369 L111.831017,29.7548026 L104.527116,29.7548026 L103.647311,32.6355369 L103.748762,32.7689662 L105.879231,32.7689662 L105.879231,35.9846696 L97.527004,35.9846696 L97.527004,32.7689662 L99.6230923,32.7689662 L104.864722,16.7585599 L104.864722,15.4856773 L111.526664,14.4472731 L117.477887,32.7689662 L119.574539,32.7689662 L119.574539,35.9846696 L110.512156,35.9846696 Z" id="Fill-6"></path>
                    <path d="M136.009585,24.764098 C138.714942,24.764098 139.931789,23.5582093 139.931789,21.1799287 C139.931789,19.2041692 138.545857,18.2656975 135.8405,18.2656975 L133.033692,18.2656975 L133.033692,24.764098 L136.009585,24.764098 Z M140.338156,35.9850045 L135.772866,27.9128075 L133.033692,27.9128075 L133.033692,32.6358718 L133.135142,32.7693012 L135.265611,32.7693012 L135.265611,35.9850045 L126.236481,35.9850045 L126.236481,32.7693012 L128.468401,32.7693012 L128.536035,32.6358718 L128.536035,18.4002434 L128.468401,18.2656975 L126.236481,18.2656975 L126.236481,15.0505524 L136.448642,15.0505524 C142.502442,15.0505524 144.733798,17.060367 144.733798,21.0124441 C144.733798,24.3286382 143.144401,26.4389435 140.439044,27.2763663 L143.617838,32.7693012 L145.917392,32.7693012 L145.917392,35.9850045 L140.338156,35.9850045 Z" id="Fill-8"></path>
                    <path d="M161.879226,32.7691895 C165.869628,32.7691895 168.135365,30.458461 168.135365,25.4339246 C168.135365,20.0079834 166.038713,18.2655858 161.574873,18.2655858 L159.275319,18.2655858 L159.275319,32.7691895 L161.879226,32.7691895 Z M152.444856,35.9848929 L152.444856,32.7691895 L154.676776,32.7691895 L154.744409,32.6357602 L154.744409,18.4001318 L154.676776,18.2655858 L152.444856,18.2655858 L152.444856,15.0504408 L162.454114,15.0504408 C169.724762,15.0504408 172.93681,18.2655858 172.93681,25.1324524 C172.93681,32.3672266 169.52186,35.9848929 162.149761,35.9848929 L152.444856,35.9848929 Z" id="Fill-10"></path>
                    <path d="M193.111505,18.5226746 C190.33006,18.5226746 187.845076,19.9295448 186.424764,21.336415 C186.128865,21.629513 185.892146,23.3294812 185.892146,24.794971 C185.892146,30.7736111 188.968927,36.8700487 194.295663,36.8700487 C198.733576,36.8700487 200.982404,32.5908185 200.982404,28.1949074 C200.982404,22.6260461 197.609162,18.5226746 193.111505,18.5226746 M192.93453,39.3320716 C184.708553,39.3320716 180.565974,32.0638004 180.565974,24.794971 C180.565974,11.1957839 193.052889,0.820674293 206.189653,0 L206.367756,1.87582695 C195.005255,3.39937807 188.910311,10.6682075 186.661482,18.757153 L186.720662,18.8157726 C189.02867,16.7646451 192.224373,15.4163945 195.241974,15.4163945 C201.988459,15.4163945 205.952934,20.4571212 205.952934,26.5535588 C205.952934,34.3494063 200.272248,39.3320716 192.93453,39.3320716" id="Fill-12"></path>
                    <path d="M221.576317,27.3739539 C227.257003,27.4911931 231.636864,30.8325099 231.636864,36.4013711 C231.636864,43.4937835 224.416942,50 216.427683,50 C212.167309,50 209.149145,48.0074921 209.149145,45.7207698 C209.149145,44.0799795 210.451098,42.848968 212.04895,42.848968 C214.297778,42.848968 216.250708,45.0765125 216.664402,47.304057 C217.197019,47.4207379 217.670457,47.4207379 218.203638,47.4207379 C222.108934,47.4207379 226.369872,44.25528 226.369872,39.0392528 C226.369872,34.0565874 223.174168,30.8911295 218.617332,30.8911295 C217.079224,30.8911295 215.481372,31.1836691 213.88352,31.8876625 L213.23198,30.3049335 C217.433738,27.5492544 223.647606,24.5607718 223.647606,19.9884436 C223.647606,16.764366 221.280418,14.1264843 217.670457,14.1264843 C214.711472,14.1264843 212.344848,16.1781701 211.102075,17.8781382 C210.806176,17.8781382 209.622583,17.2333227 209.917917,17.2333227 C211.575512,12.6023749 215.835887,9.90587368 220.92534,9.90587368 C225.955614,9.90587368 229.387472,13.1885709 229.387472,17.3505619 C229.387472,20.9849766 227.257003,24.0331954 221.576317,27.2567147 L221.576317,27.3739539 Z" id="Fill-14"></path>
                    <path d="M237.317945,38.2179086 L237.495484,36.1667811 L241.282985,35.5219656 C242.22986,35.2288676 242.643554,34.8179722 242.643554,34.173715 L242.643554,14.3022315 L236.134352,13.7746551 L236.311891,12.0160674 L247.437109,10.1407987 L247.437109,34.173715 C247.437109,34.8179722 247.792187,35.3455485 248.798242,35.5219656 L252.822461,36.1667811 L253,38.2179086 L237.317945,38.2179086 Z" id="Fill-16"></path>
                </g>
            </g>
        </g>
    </g>
</svg>